<svg width="12" height="14" viewBox="0 0 12 14" fill="none" xmlns="http://www.w3.org/2000/svg">
<path fill-rule="evenodd" clip-rule="evenodd" d="M6 0C7.5913 0 9.11742 0.632141 10.2426 1.75736C11.3679 2.88258 12 4.4087 12 6C12 8.04933 10.8827 9.72667 9.70533 10.93C9.11712 11.5247 8.47528 12.0639 7.788 12.5407L7.504 12.734L7.37067 12.8227L7.11933 12.9827L6.89533 13.1193L6.618 13.2807C6.42976 13.3881 6.21675 13.4446 6 13.4446C5.78325 13.4446 5.57024 13.3881 5.382 13.2807L5.10467 13.1193L4.758 12.906L4.63 12.8227L4.35667 12.6407C3.61522 12.139 2.9246 11.5661 2.29467 10.93C1.11733 9.726 0 8.04933 0 6C0 4.4087 0.632141 2.88258 1.75736 1.75736C2.88258 0.632141 4.4087 0 6 0ZM6 1.33333C4.76232 1.33333 3.57534 1.825 2.70017 2.70017C1.825 3.57534 1.33333 4.76232 1.33333 6C1.33333 7.548 2.18133 8.90667 3.24733 9.99733C3.70569 10.4613 4.20111 10.8872 4.72867 11.2707L5.034 11.488C5.13267 11.5569 5.22756 11.6209 5.31867 11.68L5.57867 11.8467L5.80733 11.986L6 12.0987L6.30333 11.9193L6.548 11.766C6.67822 11.6833 6.81756 11.5907 6.966 11.488L7.27133 11.2707C7.79889 10.8872 8.29431 10.4613 8.75267 9.99733C9.81867 8.90733 10.6667 7.548 10.6667 6C10.6667 4.76232 10.175 3.57534 9.29983 2.70017C8.42466 1.825 7.23768 1.33333 6 1.33333ZM6 3.33333C6.70724 3.33333 7.38552 3.61428 7.88562 4.11438C8.38572 4.61448 8.66667 5.29276 8.66667 6C8.66667 6.70724 8.38572 7.38552 7.88562 7.88562C7.38552 8.38571 6.70724 8.66667 6 8.66667C5.29276 8.66667 4.61448 8.38571 4.11438 7.88562C3.61428 7.38552 3.33333 6.70724 3.33333 6C3.33333 5.29276 3.61428 4.61448 4.11438 4.11438C4.61448 3.61428 5.29276 3.33333 6 3.33333ZM6 4.66667C5.64638 4.66667 5.30724 4.80714 5.05719 5.05719C4.80714 5.30724 4.66667 5.64638 4.66667 6C4.66667 6.35362 4.80714 6.69276 5.05719 6.94281C5.30724 7.19286 5.64638 7.33333 6 7.33333C6.35362 7.33333 6.69276 7.19286 6.94281 6.94281C7.19286 6.69276 7.33333 6.35362 7.33333 6C7.33333 5.64638 7.19286 5.30724 6.94281 5.05719C6.69276 4.80714 6.35362 4.66667 6 4.66667Z" fill="black" fill-opacity="0.8"/>
</svg>
