<svg width="15" height="16" viewBox="0 0 15 16" fill="none" xmlns="http://www.w3.org/2000/svg">
<path d="M6.5228 9.67442V11.1628C5.22534 11.1628 3.98101 11.6332 3.06356 12.4706C2.14612 13.308 1.6307 14.4437 1.6307 15.6279H0C0 14.0489 0.687222 12.5346 1.91048 11.4182C3.13375 10.3017 4.79285 9.67442 6.5228 9.67442ZM6.5228 8.93023C3.81992 8.93023 1.6307 6.93209 1.6307 4.46512C1.6307 1.99814 3.81992 0 6.5228 0C9.22569 0 11.4149 1.99814 11.4149 4.46512C11.4149 6.93209 9.22569 8.93023 6.5228 8.93023ZM6.5228 7.44186C8.32473 7.44186 9.7842 6.10977 9.7842 4.46512C9.7842 2.82047 8.32473 1.48837 6.5228 1.48837C4.72088 1.48837 3.2614 2.82047 3.2614 4.46512C3.2614 6.10977 4.72088 7.44186 6.5228 7.44186ZM8.63864 13.2547C8.53508 12.8579 8.53508 12.4444 8.63864 12.0476L7.82981 11.6212L8.64516 10.3323L9.45399 10.7587C9.7787 10.4781 10.1711 10.2712 10.5996 10.1544V9.30233H12.2303V10.1544C12.664 10.272 13.0554 10.4819 13.3758 10.7587L14.1846 10.3323L15 11.6212L14.192 12.0476C14.2955 12.4444 14.2955 12.8579 14.192 13.2547L15 13.6811L14.1846 14.97L13.3758 14.5436C13.0511 14.8242 12.6587 15.0312 12.2303 15.1479V16H10.5996V15.1479C10.1711 15.0312 9.7787 14.8242 9.45399 14.5436L8.64516 14.97L7.82981 13.6811L8.63864 13.2547ZM11.4149 13.7674C11.7393 13.7674 12.0504 13.6498 12.2797 13.4405C12.5091 13.2311 12.6379 12.9472 12.6379 12.6512C12.6379 12.3551 12.5091 12.0712 12.2797 11.8618C12.0504 11.6525 11.7393 11.5349 11.4149 11.5349C11.0905 11.5349 10.7795 11.6525 10.5501 11.8618C10.3207 12.0712 10.1919 12.3551 10.1919 12.6512C10.1919 12.9472 10.3207 13.2311 10.5501 13.4405C10.7795 13.6498 11.0905 13.7674 11.4149 13.7674Z" fill="black" fill-opacity="0.8"/>
</svg>
